# xmcd
#
# Track frame offsets: 
#        150
#        13692
#        26287
#        41967
#
# Disc length: 739 seconds
#
# Revision: 0
# Processed by: cddbd v1.5.1PL0 Copyright (c) Steve Scherf et al.
# Submitted via: ExactAudioCopy v0.95b2
#
DISCID=2802e104
DTITLE=Dr Hook - When You're In Love With A Beautiful Woman
DYEAR=1900
DGENRE=Country
TTITLE0=When You're In Love With A Beautiful Woman
TTITLE1=I Couldn't Belive
TTITLE2=The Radio
TTITLE3=Better Love Next Time
EXTD=
EXTT0=
EXTT1=
EXTT2=
EXTT3=
PLAYORDER=
